<svg xmlns="http://www.w3.org/2000/svg" viewBox="0.494 2.25 81.493 84.134" fill="currentColor" role="img" aria-label="Amazon Music"><path d="M 47.47600555419922 26.79527282714844 C 38.3302116394043 27.1333122253418 15.64413738250732 29.70615386962891 15.64413738250732 48.86161804199219 C 15.64413738250732 69.42555236816406 41.61668014526367 70.27065277099609 50.10518264770508 56.97451400756836 C 51.32587051391602 58.89006042480469 56.75325393676758 64.01696014404297 58.61246109008789 65.76348114013672 L 69.2794189453125 55.24676513671875 C 69.2794189453125 55.24676513671875 63.21352767944336 50.49545669555664 63.21352767944336 45.33100128173828 L 63.21352767944336 17.7058219909668 C 63.21352767944336 12.95451927185059 58.61246109008789 2.250000238418579 42.12374114990234 2.250000238418579 C 25.59746170043945 2.250000238418579 16.82726860046387 12.57892036437988 16.82726860046387 21.8373908996582 L 30.63046646118164 23.11442184448242 C 33.69158172607422 13.81838989257812 40.80915069580078 13.81838989257812 40.80915069580078 13.81838989257812 C 48.45255661010742 13.79961109161377 47.47600555419922 19.41478538513184 47.47600555419922 26.79527282714844 Z M 47.47600555419922 43.09619522094727 C 47.47600555419922 58.12008285522461 31.66335678100586 55.86650466918945 31.66335678100586 46.32633590698242 C 31.66335678100586 37.46223068237305 41.14718627929688 35.67814636230469 47.47600555419922 35.47157287597656 L 47.47600555419922 43.09619522094727 Z M 73.01660919189453 73.80126190185547 C 71.570556640625 75.67924499511719 59.87070846557617 86.38376617431641 40.24575424194336 86.38376617431641 C 20.62080001831055 86.38376617431641 5.596911907196045 72.9561767578125 0.9958460927009583 67.41611480712891 C -0.2811844348907471 65.97006225585938 1.183644533157349 65.29398345947266 2.028738260269165 65.85738372802734 C 15.79437637329102 74.21442413330078 37.29731750488281 87.98004913330078 71.98371887207031 71.54768371582031 C 73.39220428466797 70.85282897949219 74.48143768310547 71.92327880859375 73.01660919189453 73.80126190185547 Z M 80.49098968505859 74.21442413330078 C 79.27030181884766 77.18100738525391 75.89124298095703 81.08699035644531 70.96282196044922 82.83351135253906 C 66.03440093994141 84.57992553710938 60.05846786499023 85.33112335205078 53.40643692016602 85.89452362060547 C 46.75439834594727 86.45792388916016 40.24575424194336 86.38376617431641 40.24575424194336 86.38376617431641 C 20.62080001831055 86.38376617431641 5.596911907196045 72.9561767578125 0.9958460927009583 67.41611480712891 C -0.2811844348907471 65.97006225585938 1.183644533157349 65.29398345947266 2.028738260269165 65.85738372802734 C 15.79437637329102 74.21442413330078 37.29731750488281 87.98004913330078 71.98371887207031 71.54768371582031 C 73.39220428466797 70.85282897949219 74.48143768310547 71.92327880859375 73.01660919189453 73.80126190185547 Z"/></svg>
